<svg width="81" height="81" viewBox="0 0 81 81" fill="none" xmlns="http://www.w3.org/2000/svg">
<g id="famicons:bed">
<path id="Vector" d="M68 36.5469C66.424 35.8548 64.7212 35.4983 63 35.5H18C16.2789 35.4983 14.5763 35.8543 13 36.5453C10.7722 37.5196 8.87646 39.1217 7.54452 41.156C6.21258 43.1903 5.50213 45.5685 5.5 48V65.5C5.5 66.163 5.76339 66.7989 6.23223 67.2678C6.70107 67.7366 7.33696 68 8 68C8.66304 68 9.29893 67.7366 9.76777 67.2678C10.2366 66.7989 10.5 66.163 10.5 65.5V64.25C10.5041 63.9197 10.6371 63.6041 10.8706 63.3706C11.1041 63.1371 11.4197 63.0041 11.75 63H69.25C69.5803 63.0041 69.8959 63.1371 70.1294 63.3706C70.3629 63.6041 70.4959 63.9197 70.5 64.25V65.5C70.5 66.163 70.7634 66.7989 71.2322 67.2678C71.7011 67.7366 72.337 68 73 68C73.663 68 74.2989 67.7366 74.7678 67.2678C75.2366 66.7989 75.5 66.163 75.5 65.5V48C75.4976 45.5687 74.787 43.1909 73.4551 41.1569C72.1231 39.1229 70.2276 37.521 68 36.5469ZM59.25 13H21.75C19.4294 13 17.2038 13.9219 15.5628 15.5628C13.9219 17.2038 13 19.4294 13 21.75V33C13.0001 33.0969 13.0226 33.1924 13.066 33.279C13.1093 33.3656 13.1721 33.441 13.2495 33.4992C13.327 33.5574 13.4168 33.5968 13.5121 33.6143C13.6074 33.6318 13.7054 33.6269 13.7984 33.6C15.1632 33.2008 16.578 32.9988 18 33H18.6609C18.8152 33.001 18.9644 32.9449 19.0798 32.8425C19.1952 32.7401 19.2686 32.5986 19.2859 32.4453C19.4223 31.2237 20.0038 30.0952 20.9195 29.2752C21.8352 28.4552 23.0208 28.0012 24.25 28H33C34.23 28.0001 35.4168 28.4535 36.3334 29.2736C37.2501 30.0937 37.8323 31.2229 37.9688 32.4453C37.9861 32.5986 38.0595 32.7401 38.1749 32.8425C38.2903 32.9449 38.4395 33.001 38.5938 33H42.4156C42.5699 33.001 42.7191 32.9449 42.8345 32.8425C42.9498 32.7401 43.0233 32.5986 43.0406 32.4453C43.1769 31.2245 43.7578 30.0966 44.6725 29.2768C45.5872 28.4569 46.7716 28.0024 48 28H56.75C57.98 28.0001 59.1668 28.4535 60.0834 29.2736C61.0001 30.0937 61.5823 31.2229 61.7187 32.4453C61.7361 32.5986 61.8095 32.7401 61.9249 32.8425C62.0403 32.9449 62.1895 33.001 62.3437 33H63C64.422 32.9993 65.8369 33.2019 67.2016 33.6016C67.2947 33.6285 67.3929 33.6333 67.4883 33.6158C67.5837 33.5982 67.6736 33.5586 67.7511 33.5003C67.8286 33.4419 67.8914 33.3663 67.9346 33.2795C67.9778 33.1927 68.0002 33.097 68 33V21.75C68 19.4294 67.0781 17.2038 65.4372 15.5628C63.7962 13.9219 61.5706 13 59.25 13Z" fill="#575757"/>
</g>
</svg>
