<svg width="14" height="14" viewBox="0 0 14 14" fill="none" xmlns="http://www.w3.org/2000/svg">
<path fill-rule="evenodd" clip-rule="evenodd" d="M2.218 0C1.545 0 1 0.545 1 1.218V5.788C1 6.462 1.545 7.008 2.218 7.008H11.782C12.455 7.008 13 6.462 13 5.788V1.218C13 0.545 12.455 0 11.782 0H2.218ZM4.921 9.441C4.921 9.82331 4.76913 10.19 4.49879 10.4603C4.22846 10.7306 3.86181 10.8825 3.4795 10.8825C3.09719 10.8825 2.73054 10.7306 2.46021 10.4603C2.18987 10.19 2.038 9.82331 2.038 9.441C2.038 9.05869 2.18987 8.69204 2.46021 8.42171C2.73054 8.15137 3.09719 7.9995 3.4795 7.9995C3.86181 7.9995 4.22846 8.15137 4.49879 8.42171C4.76913 8.69204 4.921 9.05869 4.921 9.441ZM10.525 10.883C10.9073 10.883 11.274 10.7311 11.5443 10.4608C11.8146 10.1905 11.9665 9.82381 11.9665 9.4415C11.9665 9.05919 11.8146 8.69254 11.5443 8.42221C11.274 8.15187 10.9073 8 10.525 8C10.1427 8 9.77604 8.15187 9.50571 8.42221C9.23537 8.69254 9.0835 9.05919 9.0835 9.4415C9.0835 9.82381 9.23537 10.1905 9.50571 10.4608C9.77604 10.7311 10.1427 10.883 10.525 10.883ZM3.479 11.661C2.92696 11.6611 2.3928 11.8567 1.97123 12.2131C1.54966 12.5695 1.26793 13.0637 1.176 13.608C1.141 13.82 1.319 13.996 1.534 13.996H5.425C5.64 13.996 5.818 13.82 5.783 13.608C5.69104 13.0635 5.40917 12.5692 4.98739 12.2128C4.56561 11.8563 4.03121 11.6609 3.479 11.661ZM8.222 13.608C8.3138 13.0635 8.59553 12.569 9.01722 12.2125C9.43891 11.8559 9.97328 11.6603 10.5255 11.6603C11.0777 11.6603 11.6121 11.8559 12.0338 12.2125C12.4555 12.569 12.7372 13.0635 12.829 13.608C12.864 13.82 12.686 13.996 12.471 13.996H8.58C8.366 13.996 8.187 13.82 8.222 13.608ZM8.123 2.121C8.123 2.41884 8.00468 2.70448 7.79408 2.91508C7.58348 3.12568 7.29784 3.244 7 3.244C6.70216 3.244 6.41652 3.12568 6.20592 2.91508C5.99532 2.70448 5.877 2.41884 5.877 2.121C5.877 1.82316 5.99532 1.53752 6.20592 1.32692C6.41652 1.11632 6.70216 0.998 7 0.998C7.29784 0.998 7.58348 1.11632 7.79408 1.32692C8.00468 1.53752 8.123 1.82316 8.123 2.121ZM5.025 5.657C5.10387 5.19025 5.3455 4.76652 5.70703 4.46096C6.06857 4.15539 6.52663 3.98774 7 3.98774C7.47337 3.98774 7.93143 4.15539 8.29297 4.46096C8.6545 4.76652 8.89613 5.19025 8.975 5.657C9.005 5.839 8.853 5.989 8.669 5.989H5.33C5.146 5.989 4.995 5.839 5.025 5.657Z" fill="#575757"/>
</svg>
