<svg width="80" height="81" viewBox="0 0 80 81" fill="none" xmlns="http://www.w3.org/2000/svg">
<rect x="2" y="2.5" width="76" height="76" rx="38" stroke="#BCA997" stroke-width="4"/>
<path d="M60 20.5H20C17.25 20.5 15.025 22.75 15.025 25.5L15 55.5C15 58.25 17.25 60.5 20 60.5H60C62.75 60.5 65 58.25 65 55.5V25.5C65 22.75 62.75 20.5 60 20.5ZM59 31.125L41.325 42.175C40.525 42.675 39.475 42.675 38.675 42.175L21 31.125C20.7493 30.9843 20.5298 30.7942 20.3547 30.5661C20.1796 30.3381 20.0527 30.0769 19.9814 29.7984C19.9102 29.5199 19.8963 29.2298 19.9404 28.9458C19.9845 28.6617 20.0858 28.3895 20.2382 28.1458C20.3906 27.902 20.5908 27.6916 20.8268 27.5275C21.0628 27.3633 21.3297 27.2488 21.6112 27.1907C21.8928 27.1327 22.1832 27.1324 22.4649 27.1899C22.7466 27.2473 23.0137 27.3613 23.25 27.525L40 38L56.75 27.525C56.9863 27.3613 57.2534 27.2473 57.5351 27.1899C57.8168 27.1324 58.1072 27.1327 58.3888 27.1907C58.6703 27.2488 58.9372 27.3633 59.1732 27.5275C59.4092 27.6916 59.6094 27.902 59.7618 28.1458C59.9142 28.3895 60.0155 28.6617 60.0596 28.9458C60.1037 29.2298 60.0898 29.5199 60.0186 29.7984C59.9473 30.0769 59.8204 30.3381 59.6453 30.5661C59.4702 30.7942 59.2507 30.9843 59 31.125Z" fill="#BCA997"/>
</svg>
