<svg width="80" height="81" viewBox="0 0 80 81" fill="none" xmlns="http://www.w3.org/2000/svg">
<g id="material-symbols:local-bar-rounded">
<path id="Vector" d="M36.6667 63.8333V47.1667L11.5 18.8333C11.0556 18.3889 10.6944 17.8756 10.4167 17.2933C10.1389 16.7111 10 16.1133 10 15.5C10 14.0556 10.5 12.8611 11.5 11.9167C12.5 10.9722 13.7222 10.5 15.1667 10.5H64.8333C66.2778 10.5 67.5 10.9722 68.5 11.9167C69.5 12.8611 70 14.0556 70 15.5C70 16.1111 69.8611 16.7089 69.5833 17.2933C69.3056 17.8778 68.9444 18.3911 68.5 18.8333L43.3333 47.1667V63.8333H56.6667C57.6111 63.8333 58.4033 64.1533 59.0433 64.7933C59.6833 65.4333 60.0022 66.2244 60 67.1667C59.9978 68.1089 59.6778 68.9011 59.04 69.5433C58.4022 70.1856 57.6111 70.5044 56.6667 70.5H23.3333C22.3889 70.5 21.5978 70.18 20.96 69.54C20.3222 68.9 20.0022 68.1089 20 67.1667C19.9978 66.2244 20.3178 65.4333 20.96 64.7933C21.6022 64.1533 22.3933 63.8333 23.3333 63.8333H36.6667ZM24.8333 23.8333H55.1667L61.1667 17.1667H18.8333L24.8333 23.8333Z" fill="#575757"/>
</g>
</svg>
