<svg width="26" height="25" viewBox="0 0 26 25" fill="none" xmlns="http://www.w3.org/2000/svg">
<g id="cib:google" clip-path="url(#clip0_2026_143)">
<path id="Vector" d="M13.2484 10.714V14.9984H20.3406C20.0516 16.8375 18.1961 20.3898 13.2484 20.3898C8.98438 20.3898 5.50079 16.8578 5.50079 12.5C5.50079 8.14214 8.9836 4.61011 13.2484 4.61011C15.6773 4.61011 17.3055 5.63979 18.2328 6.53511L21.6227 3.26792C19.4461 1.23745 16.6258 0.000732422 13.2484 0.000732422C6.33907 0.000732422 0.748444 5.58745 0.748444 12.5007C0.748444 19.414 6.33907 25.0007 13.2484 25.0007C20.4625 25.0007 25.2523 19.9304 25.2523 12.7859C25.2523 11.964 25.1625 11.3375 25.0531 10.7148L13.2484 10.714Z" fill="white"/>
</g>
<defs>
<clipPath id="clip0_2026_143">
<rect width="25" height="25" fill="white" transform="translate(0.5)"/>
</clipPath>
</defs>
</svg>
