<svg width="26" height="25" viewBox="0 0 26 25" fill="none" xmlns="http://www.w3.org/2000/svg">
<g id="lucide:instagram" clip-path="url(#clip0_2026_145)">
<g id="Group">
<path id="Vector" d="M18.8594 0.78125H7.14062C3.90458 0.78125 1.28125 3.40458 1.28125 6.64062V18.3594C1.28125 21.5954 3.90458 24.2188 7.14062 24.2188H18.8594C22.0954 24.2188 24.7188 21.5954 24.7188 18.3594V6.64062C24.7188 3.40458 22.0954 0.78125 18.8594 0.78125Z" stroke="white" stroke-width="2" stroke-linecap="round" stroke-linejoin="round"/>
<path id="Vector_2" d="M19.875 5.625H19.8875M18 11.7125C18.1542 12.7528 17.9765 13.8153 17.4922 14.7488C17.0078 15.6823 16.2414 16.4393 15.302 16.9121C14.3626 17.3849 13.298 17.5495 12.2597 17.3824C11.2214 17.2153 10.2622 16.7251 9.51852 15.9815C8.77487 15.2378 8.28463 14.2786 8.11755 13.2403C7.95047 12.2019 8.11505 11.1374 8.58788 10.198C9.0607 9.25857 9.8177 8.49218 10.7512 8.0078C11.6847 7.52343 12.7472 7.34574 13.7875 7.5C14.8486 7.65736 15.831 8.15183 16.5896 8.91038C17.3481 9.66894 17.8426 10.6513 18 11.7125Z" stroke="white" stroke-width="2" stroke-linecap="round" stroke-linejoin="round"/>
</g>
</g>
<defs>
<clipPath id="clip0_2026_145">
<rect width="25" height="25" fill="white" transform="translate(0.5)"/>
</clipPath>
</defs>
</svg>
