<svg width="40" height="40" viewBox="0 0 40 40" fill="none" xmlns="http://www.w3.org/2000/svg">
<rect width="40" height="40" rx="20" fill="#00573F"/>
<g clip-path="url(#clip0_2026_125)">
<path d="M9.10377 18.6749C8.75264 19.0265 8.55542 19.503 8.55542 19.9999C8.55542 20.4968 8.75264 20.9733 9.10377 21.3249L16.1738 28.3986C16.5255 28.7504 17.0026 28.948 17.5 28.948C17.9975 28.948 18.4745 28.7504 18.8263 28.3986C19.178 28.0469 19.3756 27.5698 19.3756 27.0724C19.3756 26.575 19.178 26.0979 18.8263 25.7461L14.9563 21.8749L29.375 21.8749C29.8723 21.8749 30.3492 21.6774 30.7008 21.3257C31.0525 20.9741 31.25 20.4972 31.25 19.9999C31.25 19.5026 31.0525 19.0257 30.7008 18.6741C30.3492 18.3224 29.8723 18.1249 29.375 18.1249L14.9563 18.1249L18.8263 14.2549C19.0004 14.0807 19.1386 13.874 19.2328 13.6464C19.3271 13.4188 19.3756 13.175 19.3756 12.9286C19.3756 12.6823 19.3271 12.4384 19.2328 12.2109C19.1386 11.9833 19.0004 11.7766 18.8263 11.6024C18.6521 11.4282 18.4453 11.2901 18.2178 11.1958C17.9902 11.1016 17.7463 11.053 17.5 11.053C17.2537 11.053 17.0098 11.1016 16.7823 11.1958C16.5547 11.2901 16.3479 11.4282 16.1738 11.6024L9.10377 18.6749Z" fill="white"/>
</g>
<defs>
<clipPath id="clip0_2026_125">
<rect width="30" height="30" fill="white" transform="matrix(0 -1 1 0 5 35)"/>
</clipPath>
</defs>
</svg>
