<svg width="26" height="25" viewBox="0 0 26 25" fill="none" xmlns="http://www.w3.org/2000/svg">
<g id="ri:linkedin-fill" clip-path="url(#clip0_2026_149)">
<path id="Vector" d="M5.74659 3.70497C5.74624 4.41095 5.46953 5.08787 4.97732 5.58682C4.48511 6.08577 3.81772 6.36588 3.12198 6.36553C2.42624 6.36517 1.75914 6.08439 1.26742 5.58494C0.775701 5.08549 0.499652 4.40828 0.5 3.70231C0.500348 2.99633 0.777064 2.31941 1.26927 1.82046C1.76148 1.3215 2.42887 1.0414 3.12461 1.04175C3.82035 1.0421 4.48746 1.32289 4.97917 1.82234C5.47089 2.32179 5.74694 2.99899 5.74659 3.70497ZM5.82529 8.33665H0.578699V25.0001H5.82529V8.33665ZM14.1149 8.33665H8.89454V25.0001H14.0624V16.2558C14.0624 11.3845 20.319 10.932 20.319 16.2558V25.0001H25.5V14.4457C25.5 6.23376 16.2398 6.53988 14.0624 10.5726L14.1149 8.33665Z" fill="white"/>
</g>
<defs>
<clipPath id="clip0_2026_149">
<rect width="25" height="25" fill="white" transform="translate(0.5)"/>
</clipPath>
</defs>
</svg>
