<svg width="80" height="80" viewBox="0 0 80 80" fill="none" xmlns="http://www.w3.org/2000/svg">
<rect x="2" y="2" width="76" height="76" rx="38" stroke="#BCA997" stroke-width="4"/>
<path d="M40 13.75C29.6488 13.75 21.25 21.3098 21.25 30.625C21.25 45.625 40 66.25 40 66.25C40 66.25 58.75 45.625 58.75 30.625C58.75 21.3098 50.3512 13.75 40 13.75ZM40 40C38.5166 40 37.0666 39.5601 35.8332 38.736C34.5999 37.9119 33.6386 36.7406 33.0709 35.3701C32.5032 33.9997 32.3547 32.4917 32.6441 31.0368C32.9335 29.582 33.6478 28.2456 34.6967 27.1967C35.7456 26.1478 37.082 25.4335 38.5368 25.1441C39.9917 24.8547 41.4997 25.0032 42.8701 25.5709C44.2406 26.1386 45.4119 27.0999 46.236 28.3332C47.0601 29.5666 47.5 31.0166 47.5 32.5C47.4978 34.4885 46.707 36.3949 45.3009 37.8009C43.8949 39.207 41.9885 39.9978 40 40Z" fill="#BCA997"/>
</svg>
