<svg width="80" height="81" viewBox="0 0 80 81" fill="none" xmlns="http://www.w3.org/2000/svg">
<rect x="2" y="2.5" width="76" height="76" rx="38" stroke="#BCA997" stroke-width="4"/>
<path d="M26.55 37.475C30.15 44.55 35.95 50.325 43.025 53.95L48.525 48.45C49.2 47.775 50.2 47.55 51.075 47.85C53.875 48.775 56.9 49.275 60 49.275C61.375 49.275 62.5 50.4 62.5 51.775V60.5C62.5 61.875 61.375 63 60 63C36.525 63 17.5 43.975 17.5 20.5C17.5 19.125 18.625 18 20 18H28.75C30.125 18 31.25 19.125 31.25 20.5C31.25 23.625 31.75 26.625 32.675 29.425C32.95 30.3 32.75 31.275 32.05 31.975L26.55 37.475Z" fill="#BCA997"/>
</svg>
