<svg width="40" height="40" viewBox="0 0 40 40" fill="none" xmlns="http://www.w3.org/2000/svg">
<rect width="40" height="40" rx="20" fill="#00573F"/>
<g clip-path="url(#clip0_2026_126)">
<path d="M30.8962 21.3251C31.2474 20.9735 31.4446 20.497 31.4446 20.0001C31.4446 19.5032 31.2474 19.0267 30.8962 18.6751L23.8262 11.6014C23.4745 11.2496 22.9974 11.052 22.5 11.052C22.0025 11.052 21.5255 11.2496 21.1737 11.6014C20.822 11.9531 20.6244 12.4302 20.6244 12.9276C20.6244 13.425 20.822 13.9021 21.1737 14.2539L25.0437 18.1251L10.625 18.1251C10.1277 18.1251 9.65079 18.3226 9.29916 18.6743C8.94752 19.0259 8.74998 19.5028 8.74998 20.0001C8.74998 20.4974 8.94752 20.9743 9.29916 21.3259C9.65079 21.6776 10.1277 21.8751 10.625 21.8751H25.0437L21.1737 25.7451C20.9996 25.9193 20.8614 26.126 20.7672 26.3536C20.6729 26.5811 20.6244 26.825 20.6244 27.0714C20.6244 27.3177 20.6729 27.5616 20.7672 27.7891C20.8614 28.0167 20.9996 28.2234 21.1737 28.3976C21.3479 28.5718 21.5547 28.7099 21.7822 28.8042C22.0098 28.8984 22.2537 28.947 22.5 28.947C22.7463 28.947 22.9902 28.8984 23.2177 28.8042C23.4453 28.7099 23.6521 28.5718 23.8262 28.3976L30.8962 21.3251Z" fill="white"/>
</g>
<defs>
<clipPath id="clip0_2026_126">
<rect width="30" height="30" fill="white" transform="matrix(0 1 -1 0 35 5)"/>
</clipPath>
</defs>
</svg>
