<svg width="80" height="80" viewBox="0 0 80 80" fill="none" xmlns="http://www.w3.org/2000/svg">
<g id="material-symbols:pool-rounded">
<path id="Vector" d="M40 66.6667C38 66.6667 36.4167 67.2222 35.25 68.3333C34.0833 69.4445 31.9444 70 28.8333 70C25.7222 70 23.5833 69.4445 22.4167 68.3333C21.25 67.2222 19.6667 66.6667 17.6667 66.6667C16.0556 66.6667 14.8333 67.0422 14 67.7933C13.1667 68.5445 11.8611 69.1411 10.0833 69.5833C9.19445 69.8056 8.40333 69.6111 7.71 69C7.01667 68.3889 6.66889 67.6111 6.66667 66.6667C6.66445 65.7222 6.99778 64.9033 7.66667 64.21C8.33556 63.5167 9.08556 62.9467 9.91667 62.5C10.8611 62 11.8611 61.4578 12.9167 60.8733C13.9722 60.2889 15.5556 59.9978 17.6667 60C20.7778 60 22.9167 60.5556 24.0833 61.6667C25.25 62.7778 26.8333 63.3333 28.8333 63.3333C30.8333 63.3333 32.4167 62.7778 33.5833 61.6667C34.75 60.5556 36.8889 60 40 60C43.1111 60 45.25 60.5556 46.4167 61.6667C47.5833 62.7778 49.1667 63.3333 51.1667 63.3333C53.1667 63.3333 54.75 62.7778 55.9167 61.6667C57.0833 60.5556 59.2222 60 62.3333 60C64.4444 60 66.0278 60.2922 67.0833 60.8767C68.1389 61.4611 69.1389 62.0022 70.0833 62.5C70.9167 62.9445 71.6667 63.5145 72.3333 64.21C73 64.9056 73.3333 65.7245 73.3333 66.6667C73.3333 67.6089 72.9867 68.3867 72.2933 69C71.6 69.6133 70.8078 69.8078 69.9167 69.5833C68.1389 69.1389 66.8333 68.5422 66 67.7933C65.1667 67.0445 63.9444 66.6689 62.3333 66.6667C60.3333 66.6667 58.75 67.2222 57.5833 68.3333C56.4167 69.4445 54.2778 70 51.1667 70C48.0556 70 45.9167 69.4445 44.75 68.3333C43.5833 67.2222 42 66.6667 40 66.6667ZM40 51.6667C37.8889 51.6667 36.3189 52.2222 35.29 53.3333C34.2611 54.4444 32.1089 55 28.8333 55C25.5578 55 23.3767 54.4444 22.29 53.3333C21.2033 52.2222 19.6622 51.6667 17.6667 51.6667C16.0556 51.6667 14.8333 52.0422 14 52.7933C13.1667 53.5445 11.8611 54.1411 10.0833 54.5833C9.19445 54.8056 8.40333 54.6111 7.71 54C7.01667 53.3889 6.66889 52.6111 6.66667 51.6667C6.66445 50.7222 6.99778 49.9033 7.66667 49.21C8.33556 48.5167 9.08556 47.9467 9.91667 47.5C10.8611 47 11.8611 46.4578 12.9167 45.8733C13.9722 45.2889 15.5556 44.9978 17.6667 45C20.7778 45 22.9311 45.5556 24.1267 46.6667C25.3222 47.7778 26.8911 48.3333 28.8333 48.3333C30.8333 48.3333 32.4167 47.7778 33.5833 46.6667C34.75 45.5556 36.8889 45 40 45C43.1111 45 45.25 45.5556 46.4167 46.6667C47.5833 47.7778 49.1667 48.3333 51.1667 48.3333C53.1667 48.3333 54.75 47.7778 55.9167 46.6667C57.0833 45.5556 59.2222 45 62.3333 45C64.4444 45 66.0278 45.2922 67.0833 45.8767C68.1389 46.4611 69.1389 47.0022 70.0833 47.5C70.9167 47.9444 71.6667 48.5144 72.3333 49.21C73 49.9056 73.3333 50.7244 73.3333 51.6667C73.3333 52.6089 72.9867 53.3867 72.2933 54C71.6 54.6133 70.8078 54.8078 69.9167 54.5833C68.1389 54.1389 66.8333 53.5422 66 52.7933C65.1667 52.0445 63.9444 51.6689 62.3333 51.6667C60.3333 51.6667 58.7911 52.2222 57.7067 53.3333C56.6222 54.4444 54.4422 55 51.1667 55C48 55 45.8478 54.4444 44.71 53.3333C43.5722 52.2222 42.0022 51.6667 40 51.6667ZM23 38L34.0833 26.9167L30.75 23.5833C29.3611 22.1944 27.9311 21.0967 26.46 20.29C24.9889 19.4833 23.3078 18.9422 21.4167 18.6667C20.3056 18.4444 19.3478 17.9167 18.5433 17.0833C17.7389 16.25 17.3356 15.2778 17.3333 14.1667C17.3333 13 17.75 12.0133 18.5833 11.2067C19.4167 10.4 20.3889 10.0533 21.5 10.1667C24.5 10.4444 27.0833 11.07 29.25 12.0433C31.4167 13.0167 33.5556 14.5578 35.6667 16.6667L57 38C56.0556 38.6111 55.1389 39.0978 54.25 39.46C53.3611 39.8222 52.3333 40.0022 51.1667 40C49.1667 40 47.5833 39.4444 46.4167 38.3333C45.25 37.2222 43.1111 36.6667 40 36.6667C36.8889 36.6667 34.75 37.2222 33.5833 38.3333C32.4167 39.4444 30.8333 40 28.8333 40C27.6667 40 26.6389 39.82 25.75 39.46C24.8611 39.1 23.9444 38.6133 23 38ZM55.6667 10C58 10 59.9722 10.82 61.5833 12.46C63.1944 14.1 64 16.0578 64 18.3333C64 20.6667 63.1944 22.6389 61.5833 24.25C59.9722 25.8611 58 26.6667 55.6667 26.6667C53.3333 26.6667 51.3611 25.8611 49.75 24.25C48.1389 22.6389 47.3333 20.6667 47.3333 18.3333C47.3333 16.0556 48.1389 14.0967 49.75 12.4567C51.3611 10.8167 53.3333 9.99778 55.6667 10Z" fill="#575757"/>
</g>
</svg>
