<svg width="81" height="80" viewBox="0 0 81 80" fill="none" xmlns="http://www.w3.org/2000/svg">
<g id="ion:restaurant">
<path id="Vector" d="M56.3704 34.9907C58.0129 34.9952 59.6401 34.6738 61.1576 34.0451C62.6751 33.4164 64.0528 32.493 65.211 31.3282L77.2422 19.3047C78.1938 18.3532 78.2813 16.8047 77.3751 15.8063C77.1475 15.5554 76.8714 15.3534 76.5635 15.2125C76.2556 15.0716 75.9222 14.9947 75.5837 14.9865C75.2451 14.9784 74.9084 15.039 74.594 15.1649C74.2796 15.2908 73.9941 15.4792 73.7547 15.7188L63.0313 26.4344C62.6712 26.794 62.1832 26.996 61.6743 26.996C61.1654 26.996 60.6773 26.794 60.3172 26.4344C59.5688 25.6875 59.6094 24.425 60.3563 23.6782L71.0329 13.0016C71.2722 12.7623 71.4604 12.4768 71.5861 12.1626C71.7119 11.8483 71.7725 11.5118 71.7643 11.1735C71.7561 10.8351 71.6793 10.5019 71.5385 10.1941C71.3978 9.88635 71.196 9.61034 70.9454 9.38285C70.4929 8.97248 69.9031 8.74668 69.2922 8.75004C68.9494 8.75019 68.61 8.81788 68.2934 8.94925C67.9768 9.08062 67.6891 9.27309 67.4469 9.51566L56.7797 20.1813C56.4197 20.5409 55.9316 20.7429 55.4227 20.7429C54.9138 20.7429 54.4257 20.5409 54.0657 20.1813C53.3188 19.4344 53.3579 18.1719 54.1047 17.425L64.7813 6.7516C65.0206 6.51226 65.2088 6.22682 65.3346 5.91258C65.4603 5.59834 65.5209 5.26184 65.5127 4.92348C65.5045 4.58512 65.4277 4.25194 65.287 3.94415C65.1462 3.63635 64.9444 3.36034 64.6938 3.13285C64.2414 2.72248 63.6515 2.49668 63.0407 2.50004C62.3485 2.50086 61.6848 2.7762 61.1954 3.26566L49.1719 15.2891C48.0071 16.4475 47.0836 17.8255 46.4549 19.3433C45.8262 20.8611 45.5049 22.4885 45.5094 24.1313V25.4172C45.5097 25.746 45.4451 26.0716 45.3193 26.3754C45.1936 26.6791 45.0092 26.9551 44.7766 27.1875L39.2126 32.7532C39.1545 32.8113 39.0856 32.8574 39.0097 32.8888C38.9338 32.9203 38.8525 32.9365 38.7704 32.9365C38.6882 32.9365 38.6069 32.9203 38.531 32.8888C38.4552 32.8574 38.3862 32.8113 38.3282 32.7532L11.2532 5.6766C10.7859 5.20877 10.1523 4.94513 9.49105 4.94337C8.82982 4.94161 8.19483 5.20189 7.72505 5.66722C5.35787 8.01254 4.0938 11.3235 4.0938 15.2407C4.07818 21.7094 7.47818 29.1469 12.9672 34.6282L26.3188 47.9797C28.2166 49.8734 30.7879 50.9371 33.4688 50.9375C34.3235 50.9379 35.1747 50.8287 36.0016 50.6125C36.2092 50.5581 36.4229 50.5303 36.6376 50.5297C37.2652 50.5298 37.8696 50.767 38.3297 51.1938L40.1094 52.8375C40.5684 53.3065 40.8263 53.936 40.8282 54.5922V55.4578C40.8236 57.4257 41.597 59.3156 42.9797 60.7157L57.0501 75.0235L57.0641 75.0391C58.6258 76.6006 60.7438 77.4777 62.9522 77.4776C65.1606 77.4774 67.2784 76.6 68.8399 75.0383C70.4014 73.4766 71.2785 71.3587 71.2784 69.1503C71.2782 66.9419 70.4008 64.824 68.8391 63.2625L47.7485 42.1719C47.6904 42.1139 47.6443 42.0449 47.6128 41.9691C47.5814 41.8932 47.5652 41.8119 47.5652 41.7297C47.5652 41.6476 47.5814 41.5663 47.6128 41.4904C47.6443 41.4145 47.6904 41.3456 47.7485 41.2875L53.3126 35.7235C53.5448 35.4911 53.8205 35.3068 54.124 35.181C54.4275 35.0553 54.7528 34.9906 55.0813 34.9907H56.3704Z" fill="#575757"/>
<path id="Vector_2" d="M33.4688 55.9374C29.4662 55.9292 25.6283 54.3431 22.7875 51.5233L20.6219 49.3577C20.3876 49.124 20.0701 48.9927 19.7391 48.9927C19.4081 48.9927 19.0906 49.124 18.8563 49.3577L5.57505 62.5702C3.20786 64.9374 2.36255 68.4218 3.53442 71.8343C3.60015 72.0265 3.67791 72.2143 3.76723 72.3968C5.3438 75.6249 8.40317 77.4999 11.75 77.4999C12.901 77.5027 14.0412 77.2772 15.1043 76.8362C16.1675 76.3953 17.1326 75.7478 17.9438 74.9312L35.6563 57.1343C35.7309 57.0582 35.7879 56.9668 35.8236 56.8664C35.8592 56.766 35.8725 56.6591 35.8625 56.553V56.5124C35.8556 56.415 35.829 56.32 35.7843 56.2331C35.7397 56.1462 35.6779 56.0693 35.6027 56.007C35.5275 55.9446 35.4405 55.8981 35.3468 55.8703C35.2532 55.8425 35.1549 55.834 35.0579 55.8452C34.5302 55.9038 33.9997 55.9345 33.4688 55.9374Z" fill="#575757"/>
</g>
</svg>
