<svg width="80" height="81" viewBox="0 0 80 81" fill="none" xmlns="http://www.w3.org/2000/svg">
<path d="M40 70.4999C37.6667 70.4999 35.6944 69.6944 34.0833 68.0833C32.4722 66.4721 31.6667 64.4999 31.6667 62.1666C31.6667 59.8333 32.4722 57.861 34.0833 56.2499C35.6944 54.6388 37.6667 53.8333 40 53.8333C42.3333 53.8333 44.3056 54.6388 45.9167 56.2499C47.5278 57.861 48.3333 59.8333 48.3333 62.1666C48.3333 64.4999 47.5278 66.4721 45.9167 68.0833C44.3056 69.6944 42.3333 70.4999 40 70.4999ZM40 33.8333C44.1667 33.8333 48.1256 34.4999 51.8767 35.8333C55.6278 37.1666 59.03 38.9999 62.0833 41.3333C63.1944 42.1666 63.7645 43.2644 63.7933 44.6266C63.8222 45.9888 63.3356 47.1688 62.3333 48.1666C61.3889 49.111 60.2222 49.5977 58.8333 49.6266C57.4444 49.6555 56.1944 49.2799 55.0833 48.4999C52.9722 47.0555 50.6389 45.9166 48.0833 45.0833C45.5278 44.2499 42.8333 43.8333 40 43.8333C37.1667 43.8333 34.4722 44.2499 31.9167 45.0833C29.3611 45.9166 27.0278 47.0555 24.9167 48.4999C23.8056 49.2777 22.5556 49.6388 21.1667 49.5833C19.7778 49.5277 18.6111 49.0277 17.6667 48.0833C16.7222 47.0833 16.25 45.9033 16.25 44.5433C16.25 43.1833 16.8056 42.0855 17.9167 41.2499C20.9722 38.9166 24.3756 37.0966 28.1267 35.7899C31.8778 34.4833 35.8356 33.831 40 33.8333ZM40 13.8333C46.9444 13.8333 53.4867 14.9721 59.6267 17.2499C65.7667 19.5277 71.28 22.7499 76.1667 26.9166C77.2778 27.861 77.8611 29.0277 77.9167 30.4166C77.9722 31.8055 77.5 32.9999 76.5 33.9999C75.5556 34.9444 74.3889 35.431 73 35.4599C71.6111 35.4888 70.3611 35.0577 69.25 34.1666C65.25 30.8888 60.7645 28.3477 55.7933 26.5433C50.8222 24.7388 45.5578 23.8355 40 23.8333C34.4422 23.831 29.1789 24.7344 24.21 26.5433C19.2411 28.3521 14.7544 30.8933 10.75 34.1666C9.63889 35.0555 8.38889 35.4866 7 35.4599C5.61111 35.4333 4.44445 34.9466 3.5 33.9999C2.5 32.9999 2.02778 31.8055 2.08333 30.4166C2.13889 29.0277 2.72222 27.861 3.83333 26.9166C8.72222 22.7499 14.2367 19.5277 20.3767 17.2499C26.5167 14.9721 33.0578 13.8333 40 13.8333Z" fill="#353535"/>
</svg>
